<?xml version="1.0" encoding="UTF-8"?>
<svg id="Capa_1" xmlns="http://www.w3.org/2000/svg" version="1.1" viewBox="0 0 1199.52 340.52">
  <!-- Generator: Adobe Illustrator 30.5.1, SVG Export Plug-In . SVG Version: 2.1.4 Build 3)  -->
  <defs>
    <style>
      .st0 {
        fill: #fff;
      }
    </style>
  </defs>
  <g>
    <path class="st0" d="M266.05,88.18c5.02-8.04,3.97-18.47-.89-26.24-4.21-6.72-12.45-12.34-22.02-12.34l-202.67.02c-9.38,0-17.39,5.83-21.37,12.05-5.23,8.17-5.95,18.69-1.1,26.57,4.77,7.75,15.22,9.87,22.91,6.59,6.75-2.89,9.87-8.96,8.72-15.91-.91-5.46-4.21-9.7-9.18-10.54s-10.52.79-12.82,6.08c-1.38,3.16-.82,7.61.88,9.96,2.44,3.38,6.45,3.71,10.99,3.85-5.16,3.38-11.46,1.65-15.2-2.75-3.97-4.67-3.7-11.3.01-16.6,4.04-5.77,10.38-8.36,17.44-7.91,6.07.39,12.37,3.66,16.04,9.52,6.92,11.04,4.05,24.9-5.98,32.91-9.16,7.32-20.37,8.53-31.12,4.27C8.03,102.69.23,91.73,0,77.99c-.17-10.59,2.46-20.54,10.19-28.29,6.96-6.98,16.43-12.95,27.23-12.95h209.77c9.52,0,17.94,5.16,24.42,10.76,9.56,8.26,13.05,19.76,12.36,31.88-.71,12.51-7.4,22.22-18.84,27.57-14.02,6.56-30.69,2.88-39.1-10.7-7.16-11.57-3.27-27.58,8.95-33.27,10.56-4.92,22.48-.88,26.67,9.52,2.13,5.27.7,10.5-3.1,14.14-3.53,3.38-8.86,4.87-13.47,1.65,4.4-.22,8.14-.81,10.33-3.68s2.37-7.16.8-10.48c-2.43-5.17-7.75-6.67-12.9-5.69-4.86.93-8.13,5.16-8.91,10.65-.87,6.19,1.32,11.77,7.08,14.93,7.85,4.32,19.18,2.77,24.55-5.83Z"/>
    <path class="st0" d="M154.3,328.34c0,7.84-6.79,12.36-12.34,12.18-6.99-.22-12.11-5.26-12.11-12.67l.03-252.73c0-7.22,6.9-11.57,12.84-11.28s11.59,5.08,11.59,12.36v252.15Z"/>
    <path class="st0" d="M111.3,271.35c0,8.24-6.32,13.25-12.59,13.51-7.17.3-13.74-5-13.74-12.97l.02-195.79c0-7.74,7.15-12.69,13.73-12.28s12.58,5.58,12.58,13.36v194.18Z"/>
    <path class="st0" d="M199.3,271.35c0,8.23-6.32,13.25-12.59,13.51-7.17.3-13.74-5.01-13.74-12.97l.02-195.8c0-7.74,7.15-12.69,13.73-12.28s12.58,5.58,12.58,13.36v194.18Z"/>
    <path class="st0" d="M203.76,23.07l-119.39.13c-6.97,0-12.08-4.19-12.6-10.98C71.33,6.37,76.21.02,83.43.02L202.21,0c6.55,0,11.19,5,11.75,10.73.48,4.93-3.24,12.33-10.19,12.34Z"/>
  </g>
  <g>
    <g>
      <path class="st0" d="M367.07,30.25h-24.36v53.33h24.36c17.5,0,29.26-10.71,29.26-26.66s-11.76-26.67-29.26-26.67ZM357.36,42.82h9.14c9.27,0,15.03,5.4,15.03,14.1s-5.76,14.1-15.03,14.1h-9.14v-28.2Z"/>
      <polygon class="st0" points="444.06 71.24 444.06 83.58 402.09 83.58 402.09 30.25 443.13 30.25 443.13 42.6 416.67 42.6 416.67 50.53 440.04 50.53 440.04 62.59 416.67 62.59 416.67 71.24 444.06 71.24"/>
      <path class="st0" d="M491.22,67.34c0,7.89-5.98,17.11-22.85,17.11-8.19,0-16.59-2.41-21.41-6.14l-.93-.73,5.2-11.53,1.49,1.09c4.19,3.06,10.22,4.96,15.72,4.96,3.07,0,8.21-.51,8.21-3.89,0-2.54-3.7-3.58-9.78-4.99-8.23-1.91-19.48-4.53-19.48-16.66,0-7.92,5.94-17.17,22.71-17.17,6.88,0,13.54,1.71,18.27,4.69l1.06.67-4.71,11.59-1.49-.84c-4.32-2.46-8.89-3.76-13.21-3.76-3.01,0-8.06.55-8.06,4.25,0,2.47,3.69,3.49,9.76,4.88,8.23,1.88,19.5,4.46,19.5,16.47Z"/>
      <path class="st0" d="M519.49,30.25h-23.29v53.33h14.65v-13.87h8.64c14.19,0,23.35-7.73,23.35-19.69s-8.95-19.77-23.35-19.77ZM510.85,42.74h7.99c6.11,0,9.21,2.45,9.21,7.28s-3.1,7.2-9.21,7.2h-7.99v-14.48Z"/>
      <path class="st0" d="M575.39,30.25h-13.45l-23.77,53.33h15.25l4.45-10.78h21.36l4.46,10.78h15.54l-23.84-53.33ZM574.33,60.95h-11.48l5.74-13.84,5.74,13.84Z"/>
      <path class="st0" d="M638.7,64.9l9.66,8.91-.89,1.1c-5.01,6.15-12.8,9.54-21.94,9.54-16.66,0-28.75-11.58-28.75-27.53s12.12-27.53,28.82-27.53c9.07,0,16.83,3.36,21.87,9.46l.9,1.1-9.66,8.91-1.01-1.17c-3.11-3.57-6.99-5.38-11.52-5.38-8.6,0-14.61,6.01-14.61,14.61s6.01,14.6,14.61,14.6c4.55,0,8.42-1.83,11.51-5.44l1.01-1.18Z"/>
      <polygon class="st0" points="701.8 30.25 701.8 83.58 687.15 83.58 687.15 62.95 667.29 62.95 667.29 83.58 652.64 83.58 652.64 30.25 667.29 30.25 667.29 50.1 687.15 50.1 687.15 30.25 701.8 30.25"/>
      <path class="st0" d="M736.61,29.39c-16.56,0-29.04,11.83-29.04,27.53s12.48,27.53,29.04,27.53,29.03-11.84,29.03-27.53-12.48-27.53-29.03-27.53ZM736.61,71.52c-8.39,0-14.25-6-14.25-14.6s5.86-14.61,14.25-14.61,14.24,6.01,14.24,14.61-5.86,14.6-14.24,14.6Z"/>
      <path class="st0" d="M830.52,64.9l9.66,8.91-.9,1.1c-5.01,6.15-12.8,9.54-21.94,9.54-16.66,0-28.75-11.58-28.75-27.53s12.12-27.53,28.82-27.53c9.07,0,16.84,3.36,21.87,9.46l.9,1.1-9.65,8.91-1.02-1.17c-3.11-3.57-6.98-5.38-11.52-5.38-8.6,0-14.61,6.01-14.61,14.61s6.01,14.6,14.61,14.6c4.55,0,8.43-1.83,11.51-5.44l1.02-1.18Z"/>
      <path class="st0" d="M869.25,29.39c-16.56,0-29.04,11.83-29.04,27.53s12.48,27.53,29.04,27.53,29.04-11.84,29.04-27.53-12.49-27.53-29.04-27.53ZM869.25,71.52c-8.39,0-14.25-6-14.25-14.6s5.86-14.61,14.25-14.61,14.25,6.01,14.25,14.61-5.86,14.6-14.25,14.6Z"/>
      <polygon class="st0" points="953.21 30.25 953.21 83.58 941.44 83.58 918.56 55.72 918.56 83.58 904.05 83.58 904.05 30.25 915.9 30.25 938.71 58.11 938.71 30.25 953.21 30.25"/>
      <polygon class="st0" points="1003.32 30.25 1003.32 42.74 987.22 42.74 987.22 83.58 972.57 83.58 972.57 42.74 956.47 42.74 956.47 30.25 1003.32 30.25"/>
      <path class="st0" d="M1033.85,30.25h-13.45l-23.77,53.33h15.25l4.46-10.78h21.36l4.46,10.78h15.54l-23.85-53.33ZM1021.32,60.95l5.74-13.84,5.73,13.84h-11.47Z"/>
      <path class="st0" d="M1100.76,55.61c3.22-2.62,5.01-6.41,5.01-10.77,0-9.13-7.68-14.59-20.55-14.59h-26.09v53.33h27.53c13.74,0,21.63-5.55,21.63-15.23,0-5.72-2.71-10.24-7.53-12.74ZM1085.8,71.81h-12.09v-9.44h12.09c7.77,0,7.77,3.46,7.77,4.76,0,1.4,0,4.68-7.77,4.68ZM1073.71,42.03h10.07c7.27,0,7.27,3.3,7.27,4.39s0,4.47-7.27,4.47h-10.07v-8.86Z"/>
      <polygon class="st0" points="1154.01 71.09 1154.01 83.58 1114.13 83.58 1114.13 30.25 1128.78 30.25 1128.78 71.09 1154.01 71.09"/>
      <polygon class="st0" points="1199.52 71.24 1199.52 83.58 1157.55 83.58 1157.55 30.25 1198.59 30.25 1198.59 42.6 1172.13 42.6 1172.13 50.53 1195.5 50.53 1195.5 62.59 1172.13 62.59 1172.13 71.24 1199.52 71.24"/>
    </g>
    <g>
      <polygon class="st0" points="377.28 131.41 377.28 164.17 440.14 164.17 440.14 192.52 377.28 192.52 377.28 242 342.71 242 342.71 103.05 448.49 103.05 448.49 131.41 377.28 131.41"/>
      <rect class="st0" x="466.68" y="103.05" width="34.57" height="138.95"/>
      <path class="st0" d="M635.7,200.65c0,20.15-15.51,43.68-59.2,43.68-21.58,0-43.66-6.3-56.25-16.05l-.98-.75,11.97-26.56,1.57,1.14c11.73,8.55,28.54,13.86,43.89,13.86s24.62-4.61,24.62-12.98c0-9.3-13.12-12.36-28.31-15.88-22.57-5.24-50.65-11.77-50.65-42.52,0-12.3,5.23-23.33,14.72-31.02,10.36-8.4,25.6-12.84,44.08-12.84s35.62,4.47,47.99,12.27l1.11.7-10.87,26.73-1.56-.88c-12.02-6.85-24.78-10.47-36.86-10.47-15.63,0-24.23,4.96-24.23,13.96s13.09,12.13,28.25,15.59c22.6,5.17,50.71,11.59,50.71,42.03Z"/>
      <path class="st0" d="M756.42,197.62l22.46,20.74-.93,1.14c-13.24,16.25-33.05,24.84-57.29,24.84-43.51,0-75.1-30.21-75.1-71.8s31.67-71.8,75.3-71.8c23.71,0,43.98,8.75,57.08,24.63l.94,1.14-22.45,20.73-1.07-1.21c-8.87-10.2-19.96-15.37-32.96-15.37-24.67,0-41.89,17.22-41.89,41.89s17.22,41.89,41.89,41.89c13.05,0,24.14-5.24,32.96-15.56l1.06-1.25Z"/>
      <path class="st0" d="M870.31,103.98l-.41-.93h-33.08l-61.94,138.95h35.68l12.03-29.11h60.95l12.03,29.11h36.45l-61.72-138.02ZM833.98,185.9l19.19-46.33,19.19,46.33h-38.38Z"/>
      <g>
        <path class="st0" d="M1042.55,240.43h.75v-1.69l-.75,1.69Z"/>
        <path class="st0" d="M1043.3,238.73l-.75,1.69-.7,1.57h3.02v-6.78l-1.57,3.52Z"/>
        <polygon class="st0" points="1044.87 213.25 1044.87 235.22 1043.3 238.73 1042.55 240.43 1041.85 242 942.2 242 942.2 103.05 976.77 103.05 976.77 213.25 1044.87 213.25"/>
      </g>
      <g>
        <path class="st0" d="M1044.26,240.43h.61v-1.36l-.61,1.36Z"/>
        <path class="st0" d="M1043.3,238.73l-.75,1.69-.7,1.57h3.02v-6.78l-1.57,3.52Z"/>
        <path class="st0" d="M1137.28,103.98l-.42-.93h-33.08l-58.9,132.17v6.78h32.65l12.02-29.11h60.96l12.02,29.11h36.45l-61.71-138.02ZM1100.94,185.9l19.19-46.33,19.19,46.33h-38.38Z"/>
      </g>
    </g>
    <g>
      <path class="st0" d="M376.8,295.99l7.58,7-.89,1.08c-3.71,4.55-9.46,7.05-16.21,7.05-12.3,0-21.23-8.56-21.23-20.34s8.95-20.35,21.28-20.35c6.7,0,12.43,2.49,16.15,7l.91,1.08-7.58,6.99-1.01-1.15c-2.17-2.5-4.88-3.76-8.04-3.76-5.99,0-10.17,4.19-10.17,10.18s4.18,10.17,10.17,10.17c3.22,0,5.85-1.24,8.03-3.8l1.01-1.17Z"/>
      <path class="st0" d="M404.89,270.45c-12.22,0-21.44,8.75-21.44,20.35s9.22,20.34,21.44,20.34,21.44-8.75,21.44-20.34-9.22-20.35-21.44-20.35ZM404.89,300.96c-5.83,0-9.91-4.18-9.91-10.17s4.08-10.18,9.91-10.18,9.91,4.19,9.91,10.18-4.07,10.17-9.91,10.17Z"/>
      <polygon class="st0" points="466.11 271.07 466.11 310.5 456.99 310.5 441.02 291.05 441.02 310.5 429.69 310.5 429.69 271.07 438.88 271.07 454.8 290.51 454.8 271.07 466.11 271.07"/>
      <polygon class="st0" points="502.41 271.07 502.41 280.93 490.74 280.93 490.74 310.5 479.32 310.5 479.32 280.93 467.66 280.93 467.66 271.07 502.41 271.07"/>
      <path class="st0" d="M524.38,271.07h-10.27l-17.57,39.43h11.94l3.22-7.81h14.93l3.22,7.81h12.15l-17.63-39.43ZM522.74,293.31h-7.08l3.54-8.57,3.54,8.57Z"/>
      <path class="st0" d="M573.3,289.77c2.14-1.95,3.32-4.66,3.32-7.73,0-6.87-5.71-10.96-15.29-10.96h-19.3v39.43h20.35c10.22,0,16.08-4.17,16.08-11.43,0-4.1-1.85-7.37-5.15-9.3ZM561.75,301.17h-8.35v-6.02h8.35c5.22,0,5.22,2.13,5.22,3.03,0,.97,0,2.98-5.22,2.98ZM553.4,280.41h6.9c4.86,0,4.86,2.02,4.86,2.78,0,.71,0,2.84-4.86,2.84h-6.9v-5.61Z"/>
      <polygon class="st0" points="611.57 300.65 611.57 310.5 581.87 310.5 581.87 271.07 593.29 271.07 593.29 300.65 611.57 300.65"/>
      <polygon class="st0" points="644.54 300.75 644.54 310.5 613.32 310.5 613.32 271.07 643.86 271.07 643.86 280.82 624.7 280.82 624.7 285.76 641.62 285.76 641.62 295.3 624.7 295.3 624.7 300.75 644.54 300.75"/>
      <path class="st0" d="M677.5,294.43c0,4.55-3.51,8.11-8,8.11s-8.01-3.56-8.01-8.11,3.52-8.05,8.01-8.05,8,3.53,8,8.05Z"/>
      <polygon class="st0" points="707.81 280.82 707.81 287.47 724.68 287.47 724.68 297.23 707.81 297.23 707.81 310.5 696.38 310.5 696.38 271.07 726.92 271.07 726.92 280.82 707.81 280.82"/>
      <rect class="st0" x="729.67" y="271.07" width="11.42" height="39.43"/>
      <path class="st0" d="M777.18,298.35c0,5.9-4.45,12.79-16.96,12.79-6.02,0-12.2-1.77-15.75-4.53l-.94-.72,4.11-9.1,1.48,1.08c2.97,2.17,7.24,3.51,11.14,3.51,1.67,0,5.54-.24,5.54-2.42,0-1.53-2.68-2.27-6.77-3.21-6.09-1.41-14.43-3.35-14.43-12.46,0-5.92,4.42-12.85,16.85-12.85,5.06,0,9.96,1.26,13.45,3.46l1.05.67-3.71,9.13-1.48-.84c-3.07-1.75-6.31-2.68-9.36-2.68-2.03,0-5.43.35-5.43,2.68,0,1.48,2.67,2.21,6.75,3.14,6.1,1.39,14.45,3.3,14.45,12.33Z"/>
      <g>
        <path class="st0" d="M815.41,302.44l-1.16,2.61c.31-.32.6-.64.87-.98l.89-1.08-.59-.55Z"/>
        <path class="st0" d="M808.41,295.99l7,6.46-1.16,2.61c-3.7,3.93-9.09,6.08-15.34,6.08-12.3,0-21.23-8.56-21.23-20.34s8.95-20.35,21.28-20.35c6.7,0,12.43,2.49,16.15,7l.91,1.08-7.58,6.99-1.01-1.15c-2.17-2.5-4.88-3.76-8.04-3.76-5.99,0-10.17,4.19-10.17,10.18s4.18,10.17,10.17,10.17c3.22,0,5.85-1.24,8.03-3.8l1-1.17Z"/>
      </g>
      <g>
        <path class="st0" d="M815.41,302.44l-1.16,2.61c.31-.32.6-.64.87-.98l.89-1.08-.59-.55Z"/>
        <path class="st0" d="M839.66,271.07h-10.27l-13.98,31.37.59.55-.89,1.08c-.27.34-.56.66-.87.98l-2.43,5.45h11.94l3.22-7.81h14.93l3.22,7.81h12.15l-17.63-39.43ZM838.02,293.31h-7.08l3.54-8.57,3.54,8.57Z"/>
      </g>
      <polygon class="st0" points="887 300.65 887 310.5 857.3 310.5 857.3 271.07 868.72 271.07 868.72 300.65 887 300.65"/>
      <path class="st0" d="M918,294.43c0,4.55-3.52,8.11-8.01,8.11s-8-3.56-8-8.11,3.51-8.05,8-8.05,8.01,3.53,8.01,8.05Z"/>
      <path class="st0" d="M959.7,271.07v25.13c0,9.77-5.05,14.92-14.62,14.92-5.4,0-10.16-2.15-13.05-5.89l-.73-.95,6.66-8,1.13,1.52c1.73,2.32,3.5,3.4,5.57,3.4,1.81,0,3.66-.54,3.66-4.55v-15.85h-12.81v-9.75h24.18Z"/>
      <path class="st0" d="M1000.74,271.07v21.9c0,11.37-6.73,18.16-18,18.16s-18-6.79-18-18.16v-21.9h11.42v21.59c0,7.35,3.54,8.3,6.63,8.3s6.64-.95,6.64-8.3v-21.59h11.31Z"/>
      <path class="st0" d="M1033.91,297.87c4.39-2.5,6.78-6.73,6.78-12.08,0-8.94-6.8-14.72-17.32-14.72h-17.27v39.43h11.42v-10.15h5.48l7.03,10.15h12.7l-8.82-12.64ZM1022.9,290.65h-5.38v-9.72h5.38c6.27,0,6.27,3.65,6.27,4.86,0,3.22-2.11,4.87-6.27,4.87Z"/>
      <polygon class="st0" points="1052.24 271.07 1055.79 271.07 1055.79 310.5 1044.37 310.5 1044.37 271.09 1041.89 271.09 1051.72 260.61 1065.39 260.61 1052.24 271.07"/>
      <path class="st0" d="M1079.5,271.07h-18.05v39.43h18.05c12.91,0,21.59-7.92,21.59-19.71s-8.68-19.72-21.59-19.72ZM1072.87,280.98h6.21c6.47,0,10.49,3.76,10.49,9.81s-4.02,9.8-10.49,9.8h-6.21v-19.61Z"/>
      <rect class="st0" x="1104.46" y="271.07" width="11.42" height="39.43"/>
      <path class="st0" d="M1149.99,295.99l7.58,7-.89,1.08c-3.71,4.55-9.46,7.05-16.21,7.05-12.3,0-21.22-8.56-21.22-20.34s8.94-20.35,21.27-20.35c6.7,0,12.43,2.49,16.15,7l.91,1.08-7.58,6.99-1.01-1.15c-2.17-2.5-4.88-3.76-8.04-3.76-5.99,0-10.17,4.19-10.17,10.18s4.18,10.17,10.17,10.17c3.22,0,5.85-1.24,8.03-3.8l1.01-1.17Z"/>
      <path class="st0" d="M1178.08,270.45c-12.22,0-21.43,8.75-21.43,20.35s9.21,20.34,21.43,20.34,21.44-8.75,21.44-20.34-9.22-20.35-21.44-20.35ZM1178.08,300.96c-5.83,0-9.91-4.18-9.91-10.17s4.08-10.18,9.91-10.18,9.91,4.19,9.91,10.18-4.07,10.17-9.91,10.17Z"/>
    </g>
  </g>
</svg>